<svg width="532" height="146" viewBox="0 0 532 146" fill="none" xmlns="http://www.w3.org/2000/svg">
<g clip-path="url(#clip0_4_83)">
<rect x="432" width="50" height="50" rx="10" fill="#009689"/>
<rect x="482" y="50" width="50" height="50" rx="10" fill="#155DFC"/>
<circle cx="507" cy="25" r="25" fill="#E17100"/>
<circle cx="457" cy="75" r="25" fill="#E17100"/>
<path d="M457 19.6667C454.054 19.6667 451.667 22.0545 451.667 25C451.667 27.9455 454.054 30.3333 457 30.3333C459.946 30.3333 462.333 27.9455 462.333 25C462.333 22.0545 459.946 19.6667 457 19.6667ZM456 75C456 75.5523 456.448 76 457 76C457.552 76 458 75.5523 458 75H457H456ZM457 25H456V75H457H458V25H457Z" fill="#ABABAB"/>
<path d="M457 75L507 25" stroke="#ABABAB" stroke-width="2" stroke-linecap="round"/>
<path d="M508 25C508 24.4477 507.552 24 507 24C506.448 24 506 24.4477 506 25H507H508ZM506.293 75.7071C506.683 76.0976 507.317 76.0976 507.707 75.7071L514.071 69.3431C514.462 68.9526 514.462 68.3195 514.071 67.9289C513.681 67.5384 513.047 67.5384 512.657 67.9289L507 73.5858L501.343 67.9289C500.953 67.5384 500.319 67.5384 499.929 67.9289C499.538 68.3195 499.538 68.9526 499.929 69.3431L506.293 75.7071ZM507 25H506V75H507H508V25H507Z" fill="#ABABAB"/>
</g>
<path d="M413.966 46H395.709C395.236 46 395 46.2637 395 46.758C395 47.2524 395.236 47.5161 395.709 47.5161H413.966C414.439 47.5161 414.675 47.2524 414.675 46.758C414.675 46.3625 414.35 46 413.966 46ZM413.966 52.1962H395.709C395.236 52.1962 395 52.4599 395 52.9542C395 53.4486 395.236 53.7123 395.709 53.7123H413.966C414.439 53.7123 414.675 53.4486 414.675 52.9542C414.675 52.5258 414.35 52.1962 413.966 52.1962Z" fill="#ABABAB"/>
<g clip-path="url(#clip1_4_83)">
<rect x="278" width="50" height="50" rx="10" fill="#009689"/>
<rect x="328" y="50" width="50" height="50" rx="10" fill="#155DFC"/>
<circle cx="353" cy="25" r="25" fill="#E17100"/>
<circle cx="303" cy="75" r="25" fill="#E17100"/>
<path d="M297.667 25C297.667 27.9455 300.054 30.3333 303 30.3333C305.946 30.3333 308.333 27.9455 308.333 25C308.333 22.0545 305.946 19.6667 303 19.6667C300.054 19.6667 297.667 22.0545 297.667 25ZM353 26C353.552 26 354 25.5523 354 25C354 24.4477 353.552 24 353 24L353 25L353 26ZM303 25L303 26L353 26L353 25L353 24L303 24L303 25Z" fill="#ABABAB"/>
<path d="M303 75L353 25" stroke="#ABABAB" stroke-width="2" stroke-linecap="round"/>
<path d="M303 74C302.448 74 302 74.4477 302 75C302 75.5523 302.448 76 303 76L303 75L303 74ZM353.707 75.7071C354.098 75.3166 354.098 74.6834 353.707 74.2929L347.343 67.9289C346.953 67.5384 346.319 67.5384 345.929 67.9289C345.538 68.3195 345.538 68.9526 345.929 69.3431L351.586 75L345.929 80.6569C345.538 81.0474 345.538 81.6805 345.929 82.0711C346.319 82.4616 346.953 82.4616 347.343 82.0711L353.707 75.7071ZM303 75L303 76L353 76L353 75L353 74L303 74L303 75Z" fill="#ABABAB"/>
</g>
<path d="M87.848 80.432C87.848 79.632 87.512 78.976 86.84 78.464C86.2 77.952 85.384 77.504 84.392 77.12C83.432 76.736 82.376 76.368 81.224 76.016C80.072 75.632 79 75.168 78.008 74.624C77.048 74.08 76.232 73.408 75.56 72.608C74.92 71.808 74.6 70.768 74.6 69.488C74.6 67.696 75.32 66.208 76.76 65.024C78.232 63.808 80.52 63.2 83.624 63.2C84.84 63.2 86.088 63.296 87.368 63.488C88.68 63.648 89.8 63.872 90.728 64.16L90.008 67.712C89.752 67.584 89.4 67.456 88.952 67.328C88.504 67.168 87.992 67.04 87.416 66.944C86.84 66.816 86.216 66.72 85.544 66.656C84.904 66.592 84.28 66.56 83.672 66.56C80.216 66.56 78.488 67.504 78.488 69.392C78.488 70.064 78.808 70.64 79.448 71.12C80.12 71.568 80.952 71.984 81.944 72.368C82.936 72.752 84.008 73.152 85.16 73.568C86.312 73.952 87.384 74.432 88.376 75.008C89.368 75.584 90.184 76.288 90.824 77.12C91.496 77.92 91.832 78.944 91.832 80.192C91.832 82.208 91.048 83.776 89.48 84.896C87.912 85.984 85.432 86.528 82.04 86.528C80.504 86.528 79.096 86.4 77.816 86.144C76.536 85.888 75.32 85.504 74.168 84.992L74.936 81.392C76.056 81.904 77.224 82.336 78.44 82.688C79.688 83.008 81.016 83.168 82.424 83.168C86.04 83.168 87.848 82.256 87.848 80.432ZM106.664 63.728H116.072V67.04H106.664V77.408C106.664 78.528 106.744 79.44 106.904 80.144C107.064 80.848 107.32 81.424 107.672 81.872C108.056 82.288 108.536 82.576 109.112 82.736C109.688 82.896 110.392 82.976 111.224 82.976C112.376 82.976 113.304 82.88 114.008 82.688C114.712 82.496 115.384 82.24 116.024 81.92L116.6 85.28C116.152 85.472 115.432 85.728 114.44 86.048C113.48 86.368 112.28 86.528 110.84 86.528C109.176 86.528 107.816 86.336 106.76 85.952C105.704 85.568 104.872 84.992 104.264 84.224C103.688 83.456 103.288 82.512 103.064 81.392C102.84 80.24 102.728 78.912 102.728 77.408V67.04H98.024V63.728H102.728V57.488L106.664 56.816V63.728Z" fill="#E17100"/>
<path d="M121.448 90.176C121.736 90.336 122.136 90.464 122.648 90.56C123.192 90.656 123.688 90.704 124.136 90.704C125.704 90.704 126.92 90.352 127.784 89.648C128.68 88.976 129.496 87.856 130.232 86.288C128.44 82.896 126.76 79.264 125.192 75.392C123.624 71.488 122.328 67.6 121.304 63.728H125.624C125.944 65.008 126.312 66.4 126.728 67.904C127.176 69.376 127.672 70.896 128.216 72.464C128.76 74.032 129.336 75.616 129.944 77.216C130.584 78.784 131.256 80.288 131.96 81.728C132.472 80.256 132.952 78.8 133.4 77.36C133.848 75.92 134.264 74.48 134.648 73.04C135.032 71.568 135.416 70.08 135.8 68.576C136.184 67.04 136.584 65.424 137 63.728H141.128C140.104 67.888 138.952 71.92 137.672 75.824C136.424 79.728 135.08 83.344 133.64 86.672C133.096 87.952 132.504 89.056 131.864 89.984C131.256 90.912 130.584 91.68 129.848 92.288C129.112 92.896 128.28 93.344 127.352 93.632C126.424 93.92 125.368 94.064 124.184 94.064C123.576 94.064 122.904 93.984 122.168 93.824C121.464 93.664 120.984 93.52 120.728 93.392L121.448 90.176ZM159.224 86.528C157.816 86.528 156.648 86.336 155.72 85.952C154.792 85.568 154.056 84.992 153.512 84.224C152.968 83.456 152.584 82.512 152.36 81.392C152.136 80.24 152.024 78.912 152.024 77.408V56.336H145.592V52.976H155.96V77.408C155.96 78.528 156.024 79.44 156.152 80.144C156.312 80.848 156.536 81.424 156.824 81.872C157.144 82.288 157.528 82.576 157.976 82.736C158.424 82.896 158.952 82.976 159.56 82.976C160.488 82.976 161.352 82.864 162.152 82.64C162.952 82.416 163.576 82.176 164.024 81.92L164.6 85.28C164.408 85.376 164.136 85.504 163.784 85.664C163.432 85.792 163.016 85.92 162.536 86.048C162.056 86.176 161.528 86.288 160.952 86.384C160.408 86.48 159.832 86.528 159.224 86.528ZM179.432 63.2C182.44 63.2 184.76 64.144 186.392 66.032C188.024 67.888 188.84 70.72 188.84 74.528V75.92H172.904C173.064 78.224 173.816 79.984 175.16 81.2C176.536 82.384 178.456 82.976 180.92 82.976C182.328 82.976 183.528 82.864 184.52 82.64C185.512 82.416 186.264 82.176 186.776 81.92L187.304 85.28C186.824 85.536 185.96 85.808 184.712 86.096C183.464 86.384 182.056 86.528 180.488 86.528C178.568 86.528 176.872 86.24 175.4 85.664C173.96 85.056 172.76 84.24 171.8 83.216C170.84 82.192 170.12 80.976 169.64 79.568C169.16 78.128 168.92 76.576 168.92 74.912C168.92 72.928 169.224 71.2 169.832 69.728C170.44 68.256 171.24 67.04 172.232 66.08C173.224 65.12 174.344 64.4 175.592 63.92C176.84 63.44 178.12 63.2 179.432 63.2ZM184.808 72.704C184.808 70.816 184.312 69.328 183.32 68.24C182.328 67.12 181.016 66.56 179.384 66.56C178.456 66.56 177.608 66.736 176.84 67.088C176.104 67.44 175.464 67.904 174.92 68.48C174.376 69.056 173.944 69.712 173.624 70.448C173.304 71.184 173.096 71.936 173 72.704H184.808ZM207.848 80.432C207.848 79.632 207.512 78.976 206.84 78.464C206.2 77.952 205.384 77.504 204.392 77.12C203.432 76.736 202.376 76.368 201.224 76.016C200.072 75.632 199 75.168 198.008 74.624C197.048 74.08 196.232 73.408 195.56 72.608C194.92 71.808 194.6 70.768 194.6 69.488C194.6 67.696 195.32 66.208 196.76 65.024C198.232 63.808 200.52 63.2 203.624 63.2C204.84 63.2 206.088 63.296 207.368 63.488C208.68 63.648 209.8 63.872 210.728 64.16L210.008 67.712C209.752 67.584 209.4 67.456 208.952 67.328C208.504 67.168 207.992 67.04 207.416 66.944C206.84 66.816 206.216 66.72 205.544 66.656C204.904 66.592 204.28 66.56 203.672 66.56C200.216 66.56 198.488 67.504 198.488 69.392C198.488 70.064 198.808 70.64 199.448 71.12C200.12 71.568 200.952 71.984 201.944 72.368C202.936 72.752 204.008 73.152 205.16 73.568C206.312 73.952 207.384 74.432 208.376 75.008C209.368 75.584 210.184 76.288 210.824 77.12C211.496 77.92 211.832 78.944 211.832 80.192C211.832 82.208 211.048 83.776 209.48 84.896C207.912 85.984 205.432 86.528 202.04 86.528C200.504 86.528 199.096 86.4 197.816 86.144C196.536 85.888 195.32 85.504 194.168 84.992L194.936 81.392C196.056 81.904 197.224 82.336 198.44 82.688C199.688 83.008 201.016 83.168 202.424 83.168C206.04 83.168 207.848 82.256 207.848 80.432Z" fill="#155DFC"/>
<path d="M78.392 24.544C78.872 24.256 79.56 23.968 80.456 23.68C81.384 23.36 82.408 23.2 83.528 23.2C85.032 23.2 86.376 23.488 87.56 24.064C88.744 24.64 89.736 25.44 90.536 26.464C91.368 27.488 91.992 28.72 92.408 30.16C92.856 31.568 93.08 33.136 93.08 34.864C93.08 36.656 92.824 38.272 92.312 39.712C91.8 41.152 91.08 42.384 90.152 43.408C89.224 44.4 88.104 45.168 86.792 45.712C85.48 46.256 84.024 46.528 82.424 46.528C80.664 46.528 79.096 46.4 77.72 46.144C76.344 45.888 75.24 45.632 74.408 45.376V13.408L78.392 12.736V24.544ZM78.392 42.544C79 42.704 79.608 42.832 80.216 42.928C80.824 42.992 81.4 43.024 81.944 43.024C84.152 43.024 85.88 42.352 87.128 41.008C88.376 39.632 89 37.584 89 34.864C89 33.712 88.888 32.64 88.664 31.648C88.44 30.624 88.088 29.76 87.608 29.056C87.128 28.32 86.504 27.744 85.736 27.328C85 26.912 84.104 26.704 83.048 26.704C82.12 26.704 81.224 26.896 80.36 27.28C79.496 27.632 78.84 28.016 78.392 28.432V42.544ZM107.432 23.2C110.44 23.2 112.76 24.144 114.392 26.032C116.024 27.888 116.84 30.72 116.84 34.528V35.92H100.904C101.064 38.224 101.816 39.984 103.16 41.2C104.536 42.384 106.456 42.976 108.92 42.976C110.328 42.976 111.528 42.864 112.52 42.64C113.512 42.416 114.264 42.176 114.776 41.92L115.304 45.28C114.824 45.536 113.96 45.808 112.712 46.096C111.464 46.384 110.056 46.528 108.488 46.528C106.568 46.528 104.872 46.24 103.4 45.664C101.96 45.056 100.76 44.24 99.8 43.216C98.84 42.192 98.12 40.976 97.64 39.568C97.16 38.128 96.92 36.576 96.92 34.912C96.92 32.928 97.224 31.2 97.832 29.728C98.44 28.256 99.24 27.04 100.232 26.08C101.224 25.12 102.344 24.4 103.592 23.92C104.84 23.44 106.12 23.2 107.432 23.2ZM112.808 32.704C112.808 30.816 112.312 29.328 111.32 28.24C110.328 27.12 109.016 26.56 107.384 26.56C106.456 26.56 105.608 26.736 104.84 27.088C104.104 27.44 103.464 27.904 102.92 28.48C102.376 29.056 101.944 29.712 101.624 30.448C101.304 31.184 101.096 31.936 101 32.704H112.808Z" fill="#009689"/>
<path d="M135.848 40.432C135.848 39.632 135.512 38.976 134.84 38.464C134.2 37.952 133.384 37.504 132.392 37.12C131.432 36.736 130.376 36.368 129.224 36.016C128.072 35.632 127 35.168 126.008 34.624C125.048 34.08 124.232 33.408 123.56 32.608C122.92 31.808 122.6 30.768 122.6 29.488C122.6 27.696 123.32 26.208 124.76 25.024C126.232 23.808 128.52 23.2 131.624 23.2C132.84 23.2 134.088 23.296 135.368 23.488C136.68 23.648 137.8 23.872 138.728 24.16L138.008 27.712C137.752 27.584 137.4 27.456 136.952 27.328C136.504 27.168 135.992 27.04 135.416 26.944C134.84 26.816 134.216 26.72 133.544 26.656C132.904 26.592 132.28 26.56 131.672 26.56C128.216 26.56 126.488 27.504 126.488 29.392C126.488 30.064 126.808 30.64 127.448 31.12C128.12 31.568 128.952 31.984 129.944 32.368C130.936 32.752 132.008 33.152 133.16 33.568C134.312 33.952 135.384 34.432 136.376 35.008C137.368 35.584 138.184 36.288 138.824 37.12C139.496 37.92 139.832 38.944 139.832 40.192C139.832 42.208 139.048 43.776 137.48 44.896C135.912 45.984 133.432 46.528 130.04 46.528C128.504 46.528 127.096 46.4 125.816 46.144C124.536 45.888 123.32 45.504 122.168 44.992L122.936 41.392C124.056 41.904 125.224 42.336 126.44 42.688C127.688 43.008 129.016 43.168 130.424 43.168C134.04 43.168 135.848 42.256 135.848 40.432ZM154.664 23.728H164.072V27.04H154.664V37.408C154.664 38.528 154.744 39.44 154.904 40.144C155.064 40.848 155.32 41.424 155.672 41.872C156.056 42.288 156.536 42.576 157.112 42.736C157.688 42.896 158.392 42.976 159.224 42.976C160.376 42.976 161.304 42.88 162.008 42.688C162.712 42.496 163.384 42.24 164.024 41.92L164.6 45.28C164.152 45.472 163.432 45.728 162.44 46.048C161.48 46.368 160.28 46.528 158.84 46.528C157.176 46.528 155.816 46.336 154.76 45.952C153.704 45.568 152.872 44.992 152.264 44.224C151.688 43.456 151.288 42.512 151.064 41.392C150.84 40.24 150.728 38.912 150.728 37.408V27.04H146.024V23.728H150.728V17.488L154.664 16.816V23.728Z" fill="#E17100"/>
<path d="M30.4753 61.723C30.4753 62.027 30.6487 62.3649 31.0303 62.7027C31.8282 63.4459 32.2445 64.3581 32.2445 65.4392C32.2445 66.0135 32.0363 66.9257 31.62 68.2432C30.3365 72.2973 28.706 74.3243 26.7287 74.3243C25.0982 74.3243 24.3003 73.4122 24.3003 71.5541C24.3003 70.9122 24.4391 70.1351 24.6819 69.1554C25.3064 66.723 25.9655 64.3243 26.5552 61.8581C26.6246 61.6216 26.6593 61.4865 26.6593 61.3851C26.6593 60.7095 26.2777 60.3716 25.5145 60.3716C24.8207 60.3716 24.3697 60.7095 24.1269 61.3851L22.7393 66.6554C22.2189 68.6149 21.8373 69.2905 21.8373 71.0473C21.8373 71.3176 21.8373 71.5203 21.872 71.6216C21.0741 73.4122 20.0681 74.3243 18.8539 74.3243C17.1194 74.3243 16.2521 73.3446 16.2521 71.4189C16.2521 70.1689 16.8419 68.0405 18.0213 65.0338C18.4029 64.0203 18.6111 63.3108 18.6111 62.8716C18.6111 61.2162 17.3622 60 15.6624 60C14.1013 60 12.9218 60.8446 12.0546 62.5338C11.3608 63.8514 11.0139 64.7635 11.0139 65.2365C11.0139 65.5405 11.1873 65.7095 11.5689 65.7095C12.0199 65.7095 12.0893 65.5068 12.228 65.0338C13.0606 62.3311 14.1707 60.9797 15.5583 60.9797C16.044 60.9797 16.2868 61.3176 16.2868 61.9595C16.2868 62.4662 16.0787 63.2095 15.6971 64.223C14.4135 67.5 13.7544 69.7297 13.7544 70.9797C13.7544 73.8514 15.7318 75.3041 18.7498 75.3041C20.2069 75.3041 21.3863 74.5946 22.323 73.1419C23.0168 74.5946 24.4391 75.3041 26.6246 75.3041C28.7754 75.3041 30.4753 73.9189 31.6894 71.1486C32.4873 69.3919 33.979 64.7297 33.979 62.4662C33.979 61.9595 33.9443 61.6216 33.9096 61.4527C33.7709 60.8108 33.1117 60 32.3485 60C31.4466 60 30.4753 60.8446 30.4753 61.723Z" fill="#ABABAB"/>
<path d="M41.8038 64.0925C40.5529 64.0925 39.4983 64.5224 38.5908 65.3823C37.6834 66.2422 37.2174 67.2453 37.2174 68.4635C37.2174 69.2756 37.8305 69.8727 38.5908 69.8727C39.3266 69.8727 39.9398 69.2517 39.9398 68.5351C39.9398 67.7469 39.3511 67.1976 38.5663 67.1976C38.4927 67.1976 38.4437 67.1976 38.3946 67.2215C38.8606 66.0511 39.9398 65.024 41.4849 65.024C43.4961 65.024 44.6243 66.7199 44.6243 68.774C44.6243 70.3743 43.7904 72.094 42.1226 73.9093L37.5117 78.9729C37.1928 79.3312 37.2174 79.3073 37.2174 80H46.3166L47.0278 75.7007H46.2185C46.0223 76.9188 45.8506 77.6115 45.7034 77.8265C45.5808 77.9459 44.845 77.9936 43.4961 77.9936H39.4002L41.7792 75.7246C43.447 74.1959 45.5563 72.5478 46.2675 71.2819C46.7581 70.4459 47.0033 69.61 47.0033 68.774C47.0033 65.9555 44.7469 64.0925 41.8038 64.0925Z" fill="#ABABAB"/>
<path d="M30.4753 21.723C30.4753 22.027 30.6487 22.3649 31.0303 22.7027C31.8282 23.4459 32.2445 24.3581 32.2445 25.4392C32.2445 26.0135 32.0363 26.9257 31.62 28.2432C30.3365 32.2973 28.706 34.3243 26.7287 34.3243C25.0982 34.3243 24.3003 33.4122 24.3003 31.5541C24.3003 30.9122 24.4391 30.1351 24.6819 29.1554C25.3064 26.723 25.9655 24.3243 26.5552 21.8581C26.6246 21.6216 26.6593 21.4865 26.6593 21.3851C26.6593 20.7095 26.2777 20.3716 25.5145 20.3716C24.8207 20.3716 24.3697 20.7095 24.1269 21.3851L22.7393 26.6554C22.2189 28.6149 21.8373 29.2905 21.8373 31.0473C21.8373 31.3176 21.8373 31.5203 21.872 31.6216C21.0741 33.4122 20.0681 34.3243 18.8539 34.3243C17.1194 34.3243 16.2521 33.3446 16.2521 31.4189C16.2521 30.1689 16.8419 28.0405 18.0213 25.0338C18.4029 24.0203 18.6111 23.3108 18.6111 22.8716C18.6111 21.2162 17.3622 20 15.6624 20C14.1013 20 12.9218 20.8446 12.0546 22.5338C11.3608 23.8514 11.0139 24.7635 11.0139 25.2365C11.0139 25.5405 11.1873 25.7095 11.5689 25.7095C12.0199 25.7095 12.0893 25.5068 12.228 25.0338C13.0606 22.3311 14.1707 20.9797 15.5583 20.9797C16.044 20.9797 16.2868 21.3176 16.2868 21.9595C16.2868 22.4662 16.0787 23.2095 15.6971 24.223C14.4135 27.5 13.7544 29.7297 13.7544 30.9797C13.7544 33.8514 15.7318 35.3041 18.7498 35.3041C20.2069 35.3041 21.3863 34.5946 22.323 33.1419C23.0168 34.5946 24.4391 35.3041 26.6246 35.3041C28.7754 35.3041 30.4753 33.9189 31.6894 31.1486C32.4873 29.3919 33.979 24.7297 33.979 22.4662C33.979 21.9595 33.9443 21.6216 33.9096 21.4527C33.7709 20.8108 33.1117 20 32.3485 20C31.4466 20 30.4753 20.8446 30.4753 21.723Z" fill="#ABABAB"/>
<path d="M42.5886 24.0925C41.583 25.0957 40.1115 25.5973 38.1739 25.5973V26.5288C39.4493 26.5288 40.5039 26.3377 41.3132 25.9555V38.0414C41.3132 38.4714 41.2151 38.758 40.9944 38.8774C40.7737 38.9968 40.1605 39.0685 39.1795 39.0685H38.321V40C38.9342 39.9522 40.2586 39.9283 42.2943 39.9283C44.33 39.9283 45.6544 39.9522 46.2675 40V39.0685H45.4091C44.4036 39.0685 43.7904 38.9968 43.5942 38.8774C43.398 38.758 43.2753 38.4714 43.2753 38.0414V24.8091C43.2753 24.2358 43.2263 24.0925 42.5886 24.0925Z" fill="#ABABAB"/>
<path d="M135.533 114.951C135.533 114.061 135.149 113.633 134.352 113.633C133.524 113.633 132.697 114.556 132.697 115.478C132.697 116.368 133.111 116.797 133.908 116.797C134.736 116.797 135.533 115.874 135.533 114.951ZM134.795 130.87C134.145 133.474 133.199 134.792 131.988 134.792C131.604 134.792 131.397 134.495 131.397 133.869C131.397 133.309 132.254 130.474 133.997 125.333C134.233 124.575 134.352 123.982 134.352 123.553C134.352 121.938 133.347 120.752 131.9 120.752C130.629 120.752 129.625 121.576 128.886 123.257C128.295 124.608 128 125.498 128 125.926C128 126.223 128.148 126.355 128.473 126.355C128.857 126.355 128.916 126.157 129.034 125.695C129.713 123.059 130.629 121.74 131.811 121.74C132.195 121.74 132.402 122.037 132.402 122.663C132.402 123.125 132.313 123.652 132.106 124.278C131.427 126.355 130.718 128.563 130.127 130.31C129.684 131.628 129.448 132.518 129.448 132.979C129.448 134.594 130.511 135.781 131.929 135.781C133.199 135.781 134.204 134.957 134.942 133.309C135.504 132.024 135.799 131.134 135.799 130.639C135.799 130.343 135.651 130.178 135.326 130.178C135.238 130.178 134.795 130.474 134.795 130.87Z" fill="#ABABAB"/>
<path d="M166.162 123.322H147.905C147.433 123.322 147.196 123.586 147.196 124.081C147.196 124.575 147.433 124.839 147.905 124.839H166.162C166.635 124.839 166.871 124.575 166.871 124.081C166.871 123.685 166.547 123.322 166.162 123.322ZM166.162 129.519H147.905C147.433 129.519 147.196 129.782 147.196 130.277C147.196 130.771 147.433 131.035 147.905 131.035H166.162C166.635 131.035 166.871 130.771 166.871 130.277C166.871 129.848 166.547 129.519 166.162 129.519Z" fill="#ABABAB"/>
<path d="M183.734 113.468C182.227 113.468 180.957 114.061 179.864 115.248C178.771 116.434 178.21 117.818 178.21 119.499C178.21 120.62 178.948 121.444 179.864 121.444C180.75 121.444 181.489 120.587 181.489 119.598C181.489 118.511 180.78 117.752 179.835 117.752C179.746 117.752 179.687 117.752 179.628 117.785C180.189 116.17 181.489 114.753 183.35 114.753C185.773 114.753 187.131 117.093 187.131 119.928C187.131 122.136 186.127 124.509 184.118 127.014L178.564 134.001C178.18 134.495 178.21 134.462 178.21 135.418H189.17L190.027 129.486H189.052C188.815 131.167 188.609 132.122 188.431 132.419C188.284 132.584 187.397 132.65 185.773 132.65H180.839L183.705 129.519C185.713 127.409 188.254 125.135 189.111 123.388C189.702 122.235 189.997 121.081 189.997 119.928C189.997 116.039 187.279 113.468 183.734 113.468Z" fill="#ABABAB"/>
<path d="M132 101L135.464 107H128.536L132 101Z" fill="#ABABAB"/>
<defs>
<clipPath id="clip0_4_83">
<rect width="100" height="100" fill="white" transform="translate(432)"/>
</clipPath>
<clipPath id="clip1_4_83">
<rect width="100" height="100" fill="white" transform="translate(278)"/>
</clipPath>
</defs>
</svg>
